<?xml version="1.0"?><svg width="793.7007874015749" height="1122.5196850393702" xmlns="http://www.w3.org/2000/svg">
 <title>palm tree beach w/sun</title>

 <g>
  <title>Layer 1</title>
  <g id="layer1">
   <path fill="#000000" fill-rule="nonzero" stroke="#ffffff" stroke-width="6.717126" stroke-miterlimit="0" stroke-dashoffset="0" id="path3708" d="m140.768341,563.84198l80.033356,-6.115723c-59.94725,-28.795532 12.10553,-181.591064 20.158279,-203.386627c28.432388,11.504761 12.864746,58.009491 68.297104,76.514252c-22.90094,-40.161926 -15.80191,-83.323853 -65.702881,-84.485779c50.441437,-4.87381 79.882843,-34.74762 90.32428,-49.621429c-91.891907,20.12619 -71.783813,27.25238 -95.67572,41.378571c4.882858,-20.080963 46.765717,-40.161926 32.64856,-85.242889c-15.891907,27.959503 -46.783813,40.919037 -47.67572,83.87854c-28.779282,-52.853577 -57.558578,-27.707153 -96.337868,-40.56073c-6.779289,12.146454 35.441429,12.292877 89.662132,48.439301c-57.225235,-2.040497 -77.45047,52.919037 -75.67572,65.87854c31.108093,-40.707123 37.216202,-19.414276 87.324295,-60.121429c-109.86998,215.06131 -78.309113,189.982147 -87.380096,213.445404z"/>
   <path fill="#000000" fill-rule="nonzero" stroke="#ffffff" stroke-width="4.3308" stroke-miterlimit="4" stroke-dashoffset="0" id="path7055" d="m330.720306,472.791443c-57.47348,0 -104.133163,36.552887 -104.133163,81.57666c0,4.531372 0.592972,8.947021 1.501434,13.277954l205.238022,0c0.908447,-4.330933 1.501434,-8.746582 1.501434,-13.277954c0,-45.023773 -46.634247,-81.57666 -104.107727,-81.57666z"/>
   <path fill="#000000" fill-rule="evenodd" stroke="#ffffff" stroke-width="5.89" stroke-miterlimit="4" id="path6292" d="m297.151794,591.066956c-119.479599,1.54187 -221.620544,-3.473206 -221.620544,-3.473206l-0.866074,0.96875c0,0 201.535263,-114.145935 413.553574,0l1.959808,0.459839c-64.488373,6.380493 -130.44223,1.237 -193.026764,2.044617z"/>
  </g>
 </g>
</svg>